<svg width="685" height="899" viewBox="0 0 685 899" fill="none" xmlns="http://www.w3.org/2000/svg">
<path opacity="0.05" fill-rule="evenodd" clip-rule="evenodd" d="M684.626 -22.4788C684.626 -22.4788 563.755 5.45162 479.295 130.436C394.835 255.42 473.592 352.964 425.573 428.973C377.555 504.981 268.9 481.674 180.75 538.851C92.6008 596.028 39.1563 676.096 18.8705 755.557C-1.4152 835.018 -8.35238 969.452 18.8705 980.368C46.0934 991.284 684.626 980.368 684.626 980.368V-22.4788Z" fill="#6FB1FC"/>
<path opacity="0.05" fill-rule="evenodd" clip-rule="evenodd" d="M684.814 63.491C684.814 63.491 577.929 88.1894 503.242 198.712C428.556 309.234 498.2 395.491 455.737 462.704C413.275 529.917 317.193 509.307 239.243 559.868C161.294 610.429 114.033 681.232 96.095 751.499C78.1566 821.765 72.0222 940.643 96.095 950.296C120.168 959.949 684.814 950.296 684.814 950.296V63.491Z" fill="#6FB1FC"/>
<path opacity="0.078" fill-rule="evenodd" clip-rule="evenodd" d="M703.568 147.771C703.568 147.771 606.786 170.134 539.159 270.21C471.532 370.285 534.593 448.389 496.144 509.249C457.696 570.109 370.695 551.446 300.114 597.228C229.532 643.01 186.739 707.121 170.496 770.746C154.254 834.37 148.699 942.011 170.496 950.752C192.294 959.492 703.568 950.752 703.568 950.752V147.771Z" fill="#6FB1FC"/>
</svg>
